PathFileType	4	(X/Y/Z)	/Users/mathieubourgeois/Desktop/Analyse/Traitement/Sujet_01/Transformed_Static_Sujet_01_Tpose.trc
DataRate	CameraRate	NumFrames	NumMarkers	Units	OrigDataRate	OrigDataStartFrame	OrigNumFrames
120.000000	120.000000	4	35	mm	120.000000	141	226
Frame#	Time	LFHD			RFHD			LBHD			RBHD			RSHO			LSHO			CLAV			STRN			T10			RHUM			LHUM			LRAD			RRAD			RWRA			RWRB			RCAR			LCAR			LWRA			LWRB			RFWT			LFWT			LBWT			RBWT			RKNI			LKNI			RKNE			LKNE			RANE			RANI			LANI			LANE			LHEE			RHEE			RTOE			LTOE			
		X1	Y1	Z1	X2	Y2	Z2	X3	Y3	Z3	X4	Y4	Z4	X5	Y5	Z5	X6	Y6	Z6	X7	Y7	Z7	X8	Y8	Z8	X9	Y9	Z9	X10	Y10	Z10	X11	Y11	Z11	X12	Y12	Z12	X13	Y13	Z13	X14	Y14	Z14	X15	Y15	Z15	X16	Y16	Z16	X17	Y17	Z17	X18	Y18	Z18	X19	Y19	Z19	X20	Y20	Z20	X21	Y21	Z21	X22	Y22	Z22	X23	Y23	Z23	X24	Y24	Z24	X25	Y25	Z25	X26	Y26	Z26	X27	Y27	Z27	X28	Y28	Z28	X29	Y29	Z29	X30	Y30	Z30	X31	Y31	Z31	X32	Y32	Z32	X33	Y33	Z33	X34	Y34	Z34	X35	Y35	Z35	

142	1.175	4.560595989227278	1567.355102539062	138.474624633789	26.53094100952145	1555.233764648438	261.7962951660155	-148.5272827148438	1566.9580078125	163.3412933349608	-121.3371810913086	1554.369995117188	294.8187866210936	-115.2588424682618	1408.315307617188	347.9450073242186	-141.5467681884766	1400.016357421875	99.60749053955068	-56.15834426879885	1364.384765625	196.2201385498046	-16.12384033203127	1263.469116210938	206.5533142089843	-224.4864654541016	1212.342651367188	240.5425720214843	-99.16768646240241	1231.734252929688	589.7913818359374	-132.8029327392578	1240.86083984375	-158.1278381347657	-178.4369659423828	1279.217529296875	-176.3002929687501	-150.6121368408204	1267.557739257812	605.5928344726561	-156.2715148925782	1276.408813476562	827.8164062499999	-149.8713989257814	1215.242919921875	822.7645874023436	-197.7855682373048	1209.20556640625	901.9862670898436	-217.9434967041015	1236.001220703125	-472.9636840820313	-175.0270843505859	1287.615844726562	-399.7341918945313	-183.9357604980468	1221.856567382812	-390.2720642089844	-41.32022476196293	930.1162719726562	343.3384094238281	-45.95106887817384	943.1817016601562	117.3408737182617	-229.3384704589844	947.086181640625	185.3345336914062	-221.1216125488282	956.3082885742188	302.3967590332031	-179.5308074951172	435.1344909667969	273.1654968261719	-149.0681457519532	473.7651672363281	213.5665740966796	-161.0777587890626	470.3251953125	390.0646362304687	-168.3018646240234	458.84716796875	85.92624664306636	-189.1622924804688	120.7088623046875	379.3212585449219	-175.447265625	123.7835311889649	300.8118286132812	-178.4720611572266	123.936767578125	190.3663635253906	-193.8963623046875	113.1985092163086	115.4377899169922	-251.8845367431641	63.94039916992188	163.3019104003906	-248.9016418457032	75.00583648681642	345.3435668945312	-1.702849268913313	61.77725982666018	354.8016357421875	0.6454914212226707	56.98115921020509	131.6249389648438	
143	1.183333333333333	4.66283988952635	1567.450073242188	138.6464080810546	26.4976825714111	1555.277587890625	261.9974060058593	-148.466064453125	1566.960083007812	163.3458557128905	-121.4011764526368	1554.325927734375	294.8593444824218	-115.1708374023438	1408.292724609375	347.9483947753905	-141.4549102783203	1400.023071289062	99.60959625244131	-56.07088851928713	1364.366088867188	196.2257232666015	-16.05676651000979	1263.462524414062	206.5240478515624	-224.3755950927735	1212.3291015625	240.5184631347655	-99.05110168457038	1230.837280273438	589.7970581054686	-132.7270965576172	1240.895751953125	-158.1502075195314	-178.36376953125	1279.24169921875	-176.328094482422	-150.6958618164063	1267.143920898438	605.6508789062499	-156.1908721923829	1276.25927734375	827.7820434570311	-149.7792510986329	1215.1259765625	822.7244262695311	-197.6410064697267	1209.016845703125	901.9520874023436	-217.8934173583984	1236.06201171875	-472.9921264648438	-175.0019836425781	1287.690063476562	-399.7503967285157	-183.8738403320312	1221.910522460938	-390.3011779785157	-41.23772430419926	930.1063232421875	343.3175964355468	-45.87911224365236	943.1603393554688	117.3092651367187	-229.2631225585938	947.0931396484375	185.3272857666015	-221.0248260498047	956.300048828125	302.3896179199218	-179.5234375	435.1343688964844	273.1603088378906	-149.0203552246094	473.7807312011719	213.5575561523437	-161.0550537109376	470.32275390625	390.0529174804687	-168.3020172119141	458.8497619628906	85.9126815795898	-189.1665954589844	120.7056350708008	379.3231201171875	-175.4440155029297	123.790756225586	300.8148193359375	-178.472152709961	123.9404296875	190.364517211914	-193.8890533447266	113.1917724609375	115.4450607299804	-251.8861389160157	63.94203186035157	163.2997741699218	-248.8917999267578	74.99905395507814	345.3370666503906	-1.703942418098493	61.78335952758791	354.8038024902344	0.6568922400474387	56.96822357177735	131.6169891357422	
144	1.191666666666667	4.756724357604964	1567.554931640625	138.8333587646484	26.49136352539059	1555.329467773438	262.1710205078124	-148.394027709961	1566.968505859375	163.3379669189452	-121.4443740844727	1554.295776367188	294.9095458984374	-115.0578689575196	1408.270751953125	347.9332275390624	-141.3653259277344	1400.0224609375	99.59306335449209	-55.99471664428713	1364.352661132812	196.2215423583984	-15.96730995178225	1263.450439453125	206.5093536376952	-224.2722320556641	1212.319458007812	240.4939727783202	-98.94017028808601	1230.747924804688	589.7549438476561	-132.6503753662109	1240.935424804688	-158.1842498779298	-178.3112030029297	1279.290893554688	-176.3502044677736	-150.5950775146485	1267.0908203125	605.6139526367186	-156.1060943603517	1276.1328125	827.7377319335936	-149.6899261474611	1214.99951171875	822.6809082031249	-197.5446777343751	1208.875732421875	901.9237670898436	-217.8774871826171	1236.158325195312	-472.9919433593751	-174.976821899414	1287.755859375	-399.7678527832032	-183.8465270996093	1221.994995117188	-390.3246154785157	-41.14392852783207	930.096923828125	343.3125915527343	-45.77489471435548	943.1445922851562	117.2891235351562	-229.1873321533203	947.0965576171875	185.317901611328	-220.91796875	956.3118286132812	302.3681335449218	-179.5067138671875	435.1405029296875	273.1546936035156	-149.0083770751953	473.7731323242188	213.5424041748046	-161.0265350341797	470.3276977539062	390.0506896972656	-168.2835540771484	458.8551025390625	85.90487670898433	-189.1604309082032	120.7070999145508	379.3121643066406	-175.436752319336	123.7885284423828	300.8013000488281	-178.4569244384766	123.9365844726563	190.3631591796875	-193.8984527587891	113.1919708251953	115.4505157470703	-251.8761291503907	63.94578552246094	163.30224609375	-248.8915252685547	75.00931549072267	345.3356628417968	-1.704406857490583	61.76683044433596	354.7971801757812	0.6540895104408103	56.9679183959961	131.6232757568359	
145	1.2	4.836981773376448	1567.638305664062	138.9716491699218	26.47681236267087	1555.351196289062	262.3399658203124	-148.3428497314453	1566.969848632812	163.3747253417968	-121.4893646240235	1554.261474609375	294.9424743652343	-114.9624710083008	1408.236083984375	347.922149658203	-141.2733459472656	1400.029174804688	99.59873962402334	-55.88309478759768	1364.33984375	196.1879272460937	-15.87763595581057	1263.427734375	206.4659423828124	-224.1927642822266	1212.312622070312	240.4755859374999	-98.86678314208991	1230.679321289062	589.7255859374999	-132.5878601074218	1240.9794921875	-158.2192687988282	-178.2354278564453	1279.328002929688	-176.3447723388673	-150.5208587646485	1267.007690429688	605.5663452148436	-156.0418853759767	1276.007690429688	827.6953735351561	-149.6297760009767	1214.880859375	822.6239624023436	-197.4774169921876	1208.743774414062	901.8930053710936	-217.8424072265624	1236.241455078125	-473.0319213867188	-174.946548461914	1287.840576171875	-399.7911071777344	-183.7860870361328	1222.088256835938	-390.3707580566407	-41.0378799438477	930.0875244140625	343.3121643066406	-45.68424606323244	943.1363525390625	117.2703094482421	-229.1141967773438	947.099853515625	185.3121795654296	-220.7944793701172	956.32080078125	302.3577270507812	-179.4804077148438	435.1513366699219	273.1513671875	-148.9793243408203	473.7908935546875	213.5465087890624	-160.9779968261719	470.3349914550781	390.0452575683593	-168.2741394042969	458.8467712402344	85.89565277099605	-189.1534881591797	120.7158432006836	379.3274230957031	-175.4506988525391	123.785140991211	300.7943115234375	-178.4715576171875	123.9405136108399	190.3639984130859	-193.8981628417969	113.1954498291016	115.4542388916015	-251.8762512207032	63.93779754638673	163.2929229736328	-248.8950347900391	75.01871490478517	345.3399658203124	-1.69984853267674	61.76633453369143	354.8075866699219	0.6517443060874778	56.9547348022461	131.6257476806641	
